<svg id="Ebene_1" data-name="Ebene 1" xmlns="http://www.w3.org/2000/svg" xmlns:xlink="http://www.w3.org/1999/xlink" width="528.432" height="193.019" viewBox="0 0 528.432 193.019">
  <defs>
    <linearGradient id="linear-gradient" y1="0.5" x2="1" y2="0.5" gradientUnits="objectBoundingBox">
      <stop offset="0.03" stop-color="#ef476f"/>
      <stop offset="0.36" stop-color="#ffd166"/>
      <stop offset="0.76" stop-color="#06d6a0"/>
      <stop offset="1" stop-color="#118ab2"/>
    </linearGradient>
  </defs>
  <path id="Pfad_204" data-name="Pfad 204" d="M365.674,113.546a15.078,15.078,0,0,0-5.994-6.808,9.677,9.677,0,0,0-9.667-.615c-2.444,1.153-4.857,2.382-7.3,3.52-3.181,1.475-5.087.6-6.224-2.736-.876-2.613-1.783-5.225-2.767-7.807a8.956,8.956,0,0,0-4.5-5.118c-9.068-4.349-18.351,1.245-18.673,12.71.384,1.675.907,4.826,1.829,7.854,2.966,9.775,8.975,17.951,14.17,26.558a1.867,1.867,0,0,0,1.645.615c7.93-2.4,16.076-4.134,23.545-7.869,4.457-2.229,8.837-4.626,12.019-8.637,2.8-3.52,3.858-7.362,1.921-11.665Zm0,0a15.078,15.078,0,0,0-5.994-6.808,9.677,9.677,0,0,0-9.667-.615c-2.444,1.153-4.857,2.382-7.3,3.52-3.181,1.475-5.087.6-6.224-2.736-.876-2.613-1.783-5.225-2.767-7.807a8.956,8.956,0,0,0-4.5-5.118c-9.068-4.349-18.351,1.245-18.673,12.71.384,1.675.907,4.826,1.829,7.854,2.966,9.775,8.975,17.951,14.17,26.558a1.867,1.867,0,0,0,1.645.615c7.93-2.4,16.076-4.134,23.545-7.869,4.457-2.229,8.837-4.626,12.019-8.637,2.8-3.52,3.858-7.362,1.921-11.665Zm0,0a15.078,15.078,0,0,0-5.994-6.808,9.677,9.677,0,0,0-9.667-.615c-2.444,1.153-4.857,2.382-7.3,3.52-3.181,1.475-5.087.6-6.224-2.736-.876-2.613-1.783-5.225-2.767-7.807a8.956,8.956,0,0,0-4.5-5.118c-9.068-4.349-18.351,1.245-18.673,12.71.384,1.675.907,4.826,1.829,7.854,2.966,9.775,8.975,17.951,14.17,26.558a1.867,1.867,0,0,0,1.645.615c7.93-2.4,16.076-4.134,23.545-7.869,4.457-2.229,8.837-4.626,12.019-8.637,2.8-3.52,3.858-7.362,1.921-11.665ZM479.328,61.368c-12.065-6.209-25.881,2.613-25.881,16.522.015,12.311,10.666,20.979,22.193,18.043,7.223-1.844,12.28-7.854,13.217-15.707C489.779,72.4,485.937,64.78,479.328,61.368Zm-4.1,23.807c-1.153-4.165-2.474-4.995-7.715-4.411v9.022h-5.118c-.046-.553-.123-1.137-.123-1.721-.015-6.44.031-12.895-.046-19.334-.015-1.522.507-2.09,2-2.075,3.9.046,7.854-.231,11.727.138,3.473.323,5.225,2.505,5.395,5.717.154,3.181-1.983,4.672-4.872,5.871,5.01,2.382,4.073,7.408,5.794,11.4-6.947.231-5.487.984-7.039-4.611Zm-1.506-14.616a24.818,24.818,0,0,0-5.241-.461c-.307,0-.861.692-.891,1.091-.092,1.829-.031,3.658-.031,6.055a32.361,32.361,0,0,0,6.009-1.014,4.222,4.222,0,0,0,2.013-2.69,2.433,2.433,0,0,0-1.86-2.982Zm5.61-9.191c-12.065-6.209-25.881,2.613-25.881,16.522.015,12.311,10.666,20.979,22.193,18.043,7.223-1.844,12.28-7.854,13.217-15.707C489.779,72.4,485.937,64.78,479.328,61.368Zm-4.1,23.807c-1.153-4.165-2.474-4.995-7.715-4.411v9.022h-5.118c-.046-.553-.123-1.137-.123-1.721-.015-6.44.031-12.895-.046-19.334-.015-1.522.507-2.09,2-2.075,3.9.046,7.854-.231,11.727.138,3.473.323,5.225,2.505,5.395,5.717.154,3.181-1.983,4.672-4.872,5.871,5.01,2.382,4.073,7.408,5.794,11.4-6.947.231-5.487.984-7.039-4.611Zm-1.506-14.616a24.818,24.818,0,0,0-5.241-.461c-.307,0-.861.692-.891,1.091-.092,1.829-.031,3.658-.031,6.055a32.362,32.362,0,0,0,6.009-1.014,4.221,4.221,0,0,0,2.013-2.69,2.433,2.433,0,0,0-1.86-2.982ZM365.674,113.546a15.078,15.078,0,0,0-5.994-6.808,9.677,9.677,0,0,0-9.667-.615c-2.444,1.153-4.857,2.382-7.3,3.52-3.181,1.475-5.087.6-6.224-2.736-.876-2.613-1.783-5.225-2.766-7.807a8.956,8.956,0,0,0-4.5-5.118c-9.068-4.349-18.351,1.245-18.673,12.71.384,1.675.907,4.826,1.829,7.854,2.966,9.775,8.975,17.951,14.17,26.558a1.867,1.867,0,0,0,1.645.615c7.93-2.4,16.076-4.134,23.545-7.869,4.457-2.229,8.837-4.626,12.019-8.637,2.8-3.52,3.858-7.362,1.921-11.665ZM432.038,0H96.394A96.336,96.336,0,0,0,14.739,45.139c15.338.015,30.677-.015,46.015.2,5.287.077,7.377,2.643,7.362,8.053,0,13.924-.108,27.864-.123,41.788,0,10.436.077,20.856.154,31.291a22.246,22.246,0,0,0,4.134,12.541c2,2.9,5.133,3.627,8.422,3.75,1.522.061,3.058-.138,4.6-.184,3.074-.092,4.626,1.322,4.611,4.4a25.693,25.693,0,0,1-.461,6.163,4.207,4.207,0,0,1-2.582,2.474c-9.206,2.643-22.054-1.614-27.787-9.129-4.15-5.41-5.364-11.742-5.395-18.366-.046-11.342.015-22.7-.015-34.042,0-11.481-.092-22.946-.138-34.411a11.348,11.348,0,0,0-.108-1.153H7.731A95.9,95.9,0,0,0,0,96.379v.246a96.393,96.393,0,0,0,96.394,96.394H432.038a96.187,96.187,0,0,0,75.907-36.993q-40.9-.069-81.809-.015c-4.672.015-9.329.461-13.986.4-7.346-.077-14.247-1.691-20.041-6.593-4.226-3.55-3.227-8.622.046-11.711a5.669,5.669,0,0,1,7.116-.907c1.291.692,2.459,1.614,3.689,2.413a17.972,17.972,0,0,0,16.906,1.752c3.473-1.322,4.764-3.642,4.273-6.978a5.09,5.09,0,0,0-3.274-3.919c-2.69-1.183-5.5-2.075-8.269-3.074-4.1-1.475-8.33-2.643-12.28-4.442a18.455,18.455,0,0,1-10.943-18.566c.738-6.962,4.319-12.418,10.482-15.477,10.712-5.287,21.486-4.734,31.814,1.414,3.32,1.967,4.611,5.118,3.811,8.207a7,7,0,0,1-11.388,3.8c-3.765-3.151-7.915-4.964-12.91-3.658a11.253,11.253,0,0,0-2.7,1.107c-4.98,2.935-4.672,6.655-.369,10.251,1.583,1.322,3.765,2,5.763,2.766,4.288,1.675,8.683,3.074,12.925,4.811,5.84,2.382,10.143,6.347,12,12.587a18.958,18.958,0,0,1,.046,10.313c-.138.584-.338,1.137-.615,2.075H516.8a95.984,95.984,0,0,0,11.634-45.953v-.246A96.39,96.39,0,0,0,432.038,0ZM283.512,148.265c-.031,5.994-5.041,9.16-10.6,6.947-2.782-1.107-3.6-3.5-3.642-6.055-.169-8.714-.108-17.413-.184-26.127-.031-4.349-.031-8.714-.307-13.064A12.176,12.176,0,0,0,258.46,98.438c-6.516-1.091-12.833,1.783-15.108,7.223a18.993,18.993,0,0,0-1.46,6.885c-.184,11.173-.154,22.346-.2,33.5a20.435,20.435,0,0,1-.123,2.382c-.645,4.918-3.673,7.285-8.653,6.793-3.919-.4-6.1-3.1-6.132-7.777-.061-7.362-.031-14.723-.061-22.085-.031-4.98,0-9.944-.231-14.908-.246-5.748-3.443-9.928-8.422-11.527-5.594-1.8-11.68-.292-15.108,3.9a13.018,13.018,0,0,0-2.782,8.545v35.9a14.564,14.564,0,0,1-.231,3.289c-.83,3.366-3.735,5.456-7.715,5.533-4.119.092-8.222.031-12.341.031-16.291,0-32.567.154-48.843-.031-10.128-.123-18.689-3.888-24.683-12.372-3.443-4.872-4.7-10.451-4.718-16.337-.061-11.849-.061-23.684-.092-35.533a17.483,17.483,0,0,1,.123-2.013c.307-2.49,1.107-3.443,3.566-3.673a61.644,61.644,0,0,1,7.346-.215c2.49.077,3.765,1.644,3.812,4.472.061,4,.061,7.977.031,11.972-.061,7.792.015,15.584-.292,23.361-.461,11.3,9.329,19.242,20.287,16.23,7.577-2.075,11.481-7.116,11.45-15.046-.031-11.527-.154-23.069-.231-34.6-.046-5.179.43-6.3,6.639-6.409a35.281,35.281,0,0,1,4.764.323,3.379,3.379,0,0,1,3.335,3.5c.123,1.706.123,3.427.138,5.149.031,11.112.015,22.208.092,33.32a25.884,25.884,0,0,1-4.1,14.816,10.793,10.793,0,0,0-.538,1.153c.6.046,1.06.138,1.506.138,8.053,0,16.091-.046,24.145.031,1.583.015,1.952-.523,1.936-2q-.115-15.746-.092-31.476c.015-8.13,2.843-15.031,9.56-19.934,11.972-8.745,26.373-7.823,37.208,2.305.722.661,1.414,1.337,2.305,2.167A28.547,28.547,0,0,1,247.5,86.42a27.375,27.375,0,0,1,31.906,10.8,23.6,23.6,0,0,1,4.1,12.941q.092,19.065,0,38.1ZM370.685,135.4c-6.332,6.486-14.232,10.436-22.639,13.34-6.793,2.336-13.724,4.242-20.641,6.178-4.38,1.23-7.469-.277-9.744-4.134-3.735-6.347-7.685-12.556-11.3-18.965a59.874,59.874,0,0,1-7.223-19.98c-1.337-8.438-.415-16.506,5.456-23.207,6.347-7.254,14.554-9.713,23.945-8.161,7.93,1.306,13.371,5.809,16.353,13.263a2.066,2.066,0,0,0,.261.476,1.379,1.379,0,0,0,.277.231c-.031-.154-.046-.307-.061-.461,3.473-.523,6.993-1.644,10.436-1.445,9.805.6,16.476,6.178,20.564,14.8C380.843,116.789,378.63,127.286,370.685,135.4Zm100.482-34.165a23.272,23.272,0,0,1-23.515-23.468c.031-12.664,10.5-22.823,23.53-22.823,13.217-.015,23.561,10.067,23.561,22.931a23.121,23.121,0,0,1-23.576,23.361Zm8.161-39.867c-12.065-6.209-25.881,2.613-25.881,16.522.015,12.311,10.666,20.979,22.193,18.043,7.223-1.844,12.28-7.854,13.217-15.707.922-7.823-2.92-15.446-9.529-18.858Zm-4.1,23.807c-1.153-4.165-2.474-4.995-7.715-4.411v9.022h-5.118c-.046-.553-.123-1.137-.123-1.721-.015-6.44.031-12.895-.046-19.334-.015-1.522.507-2.09,2-2.075,3.9.046,7.854-.231,11.727.138,3.473.323,5.225,2.505,5.395,5.717.154,3.181-1.983,4.672-4.872,5.871,5.01,2.382,4.073,7.408,5.794,11.4-6.947.231-5.487.984-7.039-4.611Zm-1.506-14.616a24.817,24.817,0,0,0-5.241-.461c-.307,0-.861.692-.891,1.091-.092,1.829-.031,3.658-.031,6.055a32.363,32.363,0,0,0,6.009-1.014,4.221,4.221,0,0,0,2.013-2.69,2.433,2.433,0,0,0-1.86-2.982ZM359.68,106.738a9.677,9.677,0,0,0-9.667-.615c-2.444,1.153-4.857,2.382-7.3,3.519-3.181,1.475-5.087.6-6.224-2.736-.876-2.613-1.783-5.225-2.766-7.807a8.956,8.956,0,0,0-4.5-5.118c-9.068-4.349-18.351,1.245-18.673,12.71.384,1.675.907,4.826,1.829,7.854,2.966,9.775,8.975,17.951,14.17,26.558a1.867,1.867,0,0,0,1.645.615c7.93-2.4,16.076-4.134,23.545-7.869,4.457-2.228,8.837-4.626,12.019-8.637,2.8-3.52,3.858-7.362,1.921-11.665a15.078,15.078,0,0,0-5.994-6.808Zm5.994,6.808a15.078,15.078,0,0,0-5.994-6.808,9.677,9.677,0,0,0-9.667-.615c-2.444,1.153-4.857,2.382-7.3,3.519-3.181,1.475-5.087.6-6.224-2.736-.876-2.613-1.783-5.225-2.766-7.807a8.956,8.956,0,0,0-4.5-5.118c-9.068-4.349-18.351,1.245-18.673,12.71.384,1.675.907,4.826,1.829,7.854,2.966,9.775,8.975,17.951,14.17,26.558a1.867,1.867,0,0,0,1.645.615c7.93-2.4,16.076-4.134,23.545-7.869,4.457-2.228,8.837-4.626,12.019-8.637,2.8-3.52,3.858-7.362,1.921-11.665Zm0,0a15.078,15.078,0,0,0-5.994-6.808,9.677,9.677,0,0,0-9.667-.615c-2.444,1.153-4.857,2.382-7.3,3.519-3.181,1.475-5.087.6-6.224-2.736-.876-2.613-1.783-5.225-2.766-7.807a8.956,8.956,0,0,0-4.5-5.118c-9.068-4.349-18.351,1.245-18.673,12.71.384,1.675.907,4.826,1.829,7.854,2.966,9.775,8.975,17.951,14.17,26.558a1.867,1.867,0,0,0,1.645.615c7.93-2.4,16.076-4.134,23.545-7.869,4.457-2.228,8.837-4.626,12.019-8.637,2.8-3.52,3.858-7.362,1.921-11.665Z" transform="translate(0 0)" fill="url(#linear-gradient)"/>
</svg>
