<svg class="svg-icon" style="width: 1em; height: 1em;vertical-align: middle;fill: currentColor;overflow: hidden;" viewBox="0 0 1024 1024" version="1.1" xmlns="http://www.w3.org/2000/svg"><path d="M874.666667 405.333333c15.36 0 30.08 1.706667 44.586666 4.693334L1008.64 298.666667c-19.2-14.506667-210.133333-170.666667-496.64-170.666667S34.56 284.16 15.36 298.666667l496.213333 618.24 0.426667 0.426666 0.426667-0.426666 148.906666-185.6V618.666667c0-117.76 95.573333-213.333333 213.333334-213.333334z m106.666666 277.333334v-64c0-58.88-47.786667-106.666667-106.666666-106.666667s-106.666667 47.786667-106.666667 106.666667v64c-23.466667 0-42.666667 19.2-42.666667 42.666666v170.666667c0 23.466667 19.2 42.666667 42.666667 42.666667h213.333333c23.466667 0 42.666667-19.2 42.666667-42.666667v-170.666667c0-23.466667-19.2-42.666667-42.666667-42.666666z m-42.666666 0h-128v-64c0-35.413333 28.586667-64 64-64s64 28.586667 64 64v64z"  /></svg>