<svg class="svg-icon" style="width: 1em; height: 1em;vertical-align: middle;fill: currentColor;overflow: hidden;" viewBox="0 0 1024 1024" version="1.1" xmlns="http://www.w3.org/2000/svg"><path d="M874.666667 405.333333c14.933333 0 29.866667 2.133333 44.8 4.266667l89.6-110.933333c-19.2-14.933333-211.2-170.666667-497.066667-170.666667S34.133333 283.733333 14.933333 298.666667L512 917.333333l149.333333-185.6V618.666667c0-117.333333 96-213.333333 213.333334-213.333334z" opacity=".3" /><path d="M981.333333 682.666667v-64c0-59.733333-46.933333-106.666667-106.666666-106.666667s-106.666667 46.933333-106.666667 106.666667v64c-23.466667 0-42.666667 19.2-42.666667 42.666666v170.666667c0 23.466667 19.2 42.666667 42.666667 42.666667h213.333333c23.466667 0 42.666667-19.2 42.666667-42.666667v-170.666667c0-23.466667-19.2-42.666667-42.666667-42.666666z m-42.666666 0h-128v-64c0-36.266667 27.733333-64 64-64s64 27.733333 64 64v64zM204.8 533.333333L512 917.333333l149.333333-185.6V618.666667c0-55.466667 21.333333-106.666667 57.6-145.066667C665.6 448 595.2 426.666667 512 426.666667c-174.933333 0-292.266667 96-307.2 106.666666z"  /></svg>